<svg width="36" height="24" viewBox="0 0 36 24" fill="none" xmlns="http://www.w3.org/2000/svg">
<g opacity="0.5">
<path d="M34.521 3.5705L23.754 0.0555C23.569 -0.0185 23.384 -0.0185 23.162 0.0555L12.395 3.5705C12.025 3.6815 11.766 4.0515 11.766 4.4585V18.5925C11.766 18.9995 12.025 19.3325 12.395 19.4805L23.162 22.9955C23.273 23.0325 23.347 23.0325 23.458 23.0325C23.569 23.0325 23.643 23.0325 23.754 22.9955L34.521 19.4435C34.891 19.3325 35.15 18.9625 35.15 18.5555V4.4585C35.15 4.0515 34.891 3.7185 34.521 3.5705ZM22.533 20.8495L13.616 17.9265V5.7165L17.168 6.8635V13.7825C17.168 14.3005 17.575 14.7075 18.093 14.7075C18.611 14.7075 19.018 14.3005 19.018 13.7825V7.4925L22.57 8.6395V20.8495H22.533ZM23.458 7.0115L20.942 6.1975L22.718 5.5685C23.199 5.3835 23.458 4.8655 23.273 4.3845C23.088 3.9035 22.57 3.6815 22.089 3.8295L18.13 5.2725L15.651 4.4585L23.458 1.9055L31.265 4.4585L23.458 7.0115ZM33.3 17.9265L29.748 19.0735V15.0775C29.748 14.5595 29.341 14.1525 28.823 14.1525C28.305 14.1525 27.935 14.5595 27.935 15.0775V19.7025L24.383 20.8495V8.6395L33.3 5.7165V17.9265Z" fill="black"/>
<path d="M7.474 5.4575H0.925C0.407 5.4575 0 5.8645 0 6.3825C0 6.9005 0.407 7.3075 0.925 7.3075H7.474C7.992 7.3075 8.399 6.9005 8.399 6.3825C8.362 5.8645 7.955 5.4575 7.474 5.4575Z" fill="black"/>
<path d="M7.474 10.6007H0.925C0.407 10.6007 0 11.0077 0 11.5257C0 12.0437 0.407 12.4507 0.925 12.4507H7.474C7.992 12.4507 8.399 12.0437 8.399 11.5257C8.399 11.0077 7.955 10.6007 7.474 10.6007Z" fill="black"/>
<path d="M7.474 15.7433H0.925C0.407 15.7433 0 16.1503 0 16.6683C0 17.1863 0.407 17.5933 0.925 17.5933H7.474C7.992 17.5933 8.399 17.1863 8.399 16.6683C8.399 16.1503 7.955 15.7433 7.474 15.7433Z" fill="black"/>
</g>
</svg>
