<svg width="23" height="24" viewBox="0 0 23 24" fill="none" xmlns="http://www.w3.org/2000/svg">
<g opacity="0.5">
<path d="M17.4287 23.7121C17.3291 23.7121 17.2295 23.7121 17.1299 23.7121L8.66456 23.1145C6.57311 22.9153 4.97963 21.2222 4.97963 19.1308V1.00491C4.97963 0.70613 5.17882 0.407351 5.378 0.208166C5.67678 0.00898027 6.07515 -0.0906125 6.37393 0.108573C9.76008 1.50287 11.7519 4.88903 11.254 8.37477L11.1544 8.87274L17.6279 8.37477C17.7275 8.37477 17.9267 8.37477 18.0263 8.37477C19.1218 8.37477 20.2173 8.87274 20.9145 9.66948C21.7112 10.4662 22.01 11.5617 22.01 12.6573L21.512 20.0271C21.2133 22.019 19.5202 23.7121 17.4287 23.7121ZM6.97148 2.69799V19.1308C6.97148 20.1267 7.76823 21.0231 8.76415 21.1226L17.2295 21.7202C17.3291 21.7202 17.3291 21.7202 17.4287 21.7202C18.4247 21.7202 19.321 20.9235 19.4206 19.8279L19.9185 12.4581C19.9185 11.8605 19.819 11.3626 19.4206 10.9642C19.0222 10.4662 18.4247 10.267 17.7275 10.3666L10.0589 10.9642C9.76008 10.9642 9.4613 10.8646 9.26212 10.6654C9.06293 10.4662 8.96334 10.1674 8.96334 9.86866L9.16253 8.17559C9.5609 5.98455 8.66456 3.8931 6.97148 2.69799Z" fill="black"/>
<path d="M5.97557 23.9108H0.995928C0.398371 23.9108 0 23.5125 0 22.9149V8.97193C0 8.37437 0.398371 7.976 0.995928 7.976H5.97557C6.57312 7.976 6.97149 8.37437 6.97149 8.97193V22.9149C6.97149 23.5125 6.57312 23.9108 5.97557 23.9108ZM1.99186 21.919H4.97964V9.96785H1.99186V21.919Z" fill="black"/>
</g>
</svg>
